<?xml version="1.0" encoding="UTF-8"?>
<svg version="1.1" xmlns="http://www.w3.org/2000/svg" width="512" height="512">
<path d="M0 0 C1.07052488 -0.00694553 2.14104977 -0.01389106 3.2440148 -0.02104706 C6.81365342 -0.03927182 10.38262406 -0.02906487 13.95228577 -0.01878357 C16.51864111 -0.02584427 19.08499229 -0.03458992 21.65133667 -0.04489136 C27.88795482 -0.06648212 34.12439016 -0.06641719 40.36103337 -0.05826581 C45.43226119 -0.05195413 50.50343588 -0.05311353 55.57466316 -0.05953789 C56.29770117 -0.06043954 57.02073918 -0.0613412 57.76568742 -0.06227018 C59.23475032 -0.06412146 60.7038132 -0.06598403 62.17287607 -0.06785773 C75.93447964 -0.08441907 89.69598056 -0.07573125 103.45757795 -0.05887216 C116.03420051 -0.04417702 128.61058413 -0.05880382 141.18717592 -0.08764232 C154.11713707 -0.11706914 167.04698807 -0.12799902 179.97698122 -0.11846012 C181.44080609 -0.11743762 182.90463098 -0.11644301 184.36845589 -0.11547661 C185.44865821 -0.11476202 185.44865821 -0.11476202 186.55068279 -0.114033 C191.61213868 -0.11187318 196.67348975 -0.12164985 201.73492241 -0.13624763 C208.55505568 -0.15564423 215.37473828 -0.14863571 222.19485283 -0.12404823 C224.6949593 -0.11904301 227.19509963 -0.12252247 229.69517899 -0.13519669 C233.11394462 -0.15115453 236.53125369 -0.13614819 239.94995117 -0.11352539 C240.93411213 -0.12536112 241.91827309 -0.13719685 242.93225712 -0.14939123 C253.4743934 -0.0081254 260.92541575 4.67622755 268.22596741 11.9521637 C269.51864075 13.19856389 270.81161838 14.44464857 272.10487366 15.69044495 C272.75472229 16.3241803 273.40457092 16.95791565 274.07411194 17.6108551 C277.22733064 20.66688287 280.44666899 23.65088307 283.66346741 26.6396637 C284.91616356 27.80883598 286.16876875 28.97810573 287.42127991 30.1474762 C290.783529 33.2809279 294.15853265 36.40031006 297.53846741 39.5146637 C305.37975599 46.73981665 313.16519868 54.02456438 320.95448303 61.30567932 C327.46688832 67.39235025 333.98302894 73.47432414 340.53846741 79.5146637 C346.44757602 84.95945929 352.32540518 90.43717173 358.19471741 95.92481995 C360.79396673 98.35463968 363.39853762 100.778566 366.00721741 103.19825745 C369.14675038 106.11153531 372.27579754 109.03559108 375.39491272 111.97071838 C376.8828889 113.36851419 378.37822718 114.75846272 379.87440491 116.1474762 C380.67104553 116.90802307 381.46768616 117.66856995 382.28846741 118.4521637 C383.28620178 119.39382385 383.28620178 119.39382385 384.30409241 120.35450745 C390.09380138 127.56556389 389.46851927 135.25586623 389.43287659 144.10800171 C389.43776807 145.60834814 389.44395907 147.10869081 389.45133448 148.60902709 C389.46772466 152.72413517 389.46541796 156.83905154 389.45995951 160.95418084 C389.45728816 165.39535057 389.47182311 169.83646932 389.48405457 174.27761841 C389.50510662 182.97563088 389.50964953 191.67357669 389.50786668 200.37161163 C389.50655889 207.44230588 389.51036406 214.51297933 389.51779175 221.58366966 C389.51989095 223.62063827 389.52198855 225.65760688 389.52408457 227.69457549 C389.52564986 229.21538298 389.52564986 229.21538298 389.52724677 230.76691385 C389.54614839 249.94121884 389.54509924 269.11548557 389.53827745 288.28979602 C389.53270258 305.8263417 389.55352519 323.36274127 389.58663791 340.89925281 C389.62038127 358.90967294 389.6355424 376.92002308 389.63092089 394.93047541 C389.62867678 405.04037231 389.63391071 415.15013417 389.65881348 425.26000404 C389.67983495 433.86741829 389.68341021 442.47462346 389.66451389 451.08204631 C389.65536111 455.47222651 389.65419881 459.86201699 389.67486954 464.25216675 C389.69360034 468.27485837 389.689053 472.29684165 389.66632372 476.31950649 C389.66214321 477.7710144 389.66631959 479.22257684 389.67991966 480.67402706 C389.76289105 490.18002244 388.95579057 498.17991525 382.28308249 505.41906101 C376.78069514 510.62753613 370.77309758 512.88749566 363.25484753 512.89777374 C362.60649621 512.90273326 361.95814489 512.90769277 361.29014656 512.91280258 C359.12647658 512.92571391 356.96342829 512.9173887 354.79974365 512.90907288 C353.22927582 512.91396392 351.65881158 512.92015471 350.08835346 512.92753077 C345.77942121 512.94392651 341.47067197 512.9416131 337.16171944 512.9361558 C332.51195986 512.93348514 327.86224901 512.94801811 323.21250916 512.96025085 C314.10541839 512.98130579 304.99839129 512.98584566 295.89127906 512.98406297 C288.48830062 512.98275533 281.08534203 512.98655959 273.68236732 512.99398804 C271.54991001 512.99608724 269.41745269 512.99818484 267.28499538 513.00028086 C266.22360569 513.00132438 265.16221599 513.00236791 264.06866298 513.00344306 C243.99446138 513.02234582 223.92029633 513.02129517 203.84608952 513.01447374 C185.48506441 513.00889873 167.12417885 513.02972187 148.76318636 513.0628342 C129.90751752 513.09657455 111.05191552 513.11173907 92.19621593 513.10711718 C81.61124495 513.10487278 71.02640294 513.11011136 60.44145775 513.13500977 C51.42964079 513.15602734 42.41802351 513.15961034 33.40619835 513.14071018 C28.80944725 513.13155504 24.21306841 513.13040246 19.61634636 513.15106583 C15.40492248 513.16978757 11.19417543 513.1652592 6.98277722 513.14252001 C5.46262916 513.13833724 3.9424291 513.14252347 2.42233606 513.15611595 C-7.41362158 513.23804939 -15.48583846 512.38958393 -23.09778386 505.6127944 C-29.21077772 499.55280427 -31.07576585 491.95407448 -31.32229614 483.4907074 C-31.33089393 481.2342135 -31.32324236 478.97761798 -31.30210876 476.72120667 C-31.30276588 474.86096107 -31.30276588 474.86096107 -31.30343628 472.96313477 C-31.30171584 469.593778 -31.28676807 466.22498646 -31.26571441 462.85572958 C-31.24684135 459.32304169 -31.24518886 455.79034466 -31.24163818 452.25761414 C-31.2323487 445.58196587 -31.20777736 438.90646664 -31.17758971 432.23088372 C-31.14394869 424.62501352 -31.12753542 417.01913586 -31.11250341 409.41320968 C-31.08122464 393.78027499 -31.02852512 378.14748863 -30.96153259 362.5146637 C-31.85387604 362.52576675 -32.74621948 362.53686981 -33.66560364 362.54830933 C-42.109471 362.64884195 -50.55313494 362.72479577 -58.99746513 362.77372456 C-63.33796265 362.79972595 -67.67796221 362.83494857 -72.01817322 362.89186096 C-76.21332256 362.9465217 -80.40799547 362.97615522 -84.60347366 362.98904991 C-86.19736853 362.99822917 -87.79123978 363.01615332 -89.38492966 363.04331398 C-99.36544457 363.20651421 -108.12572832 362.91727328 -115.85823059 355.75875854 C-122.96015204 348.29596682 -123.40590777 340.73330424 -123.38145447 330.85328674 C-123.38992401 329.59060974 -123.39839355 328.32793274 -123.40711975 327.0269928 C-123.42925388 323.57843934 -123.43227046 320.13012541 -123.43037224 316.68151069 C-123.43025213 313.79412928 -123.43883272 310.90679787 -123.44714975 308.01943046 C-123.46635557 301.20180793 -123.46927836 294.38430781 -123.46250916 287.56666565 C-123.45587394 280.55408777 -123.47871775 273.54203661 -123.51582289 266.52956551 C-123.54660467 260.49107086 -123.55787068 254.45274488 -123.55398607 248.41417342 C-123.55192687 244.8155118 -123.55726774 241.21726003 -123.58187866 237.61867332 C-123.60845548 233.6001739 -123.59435382 229.58277321 -123.57676697 225.56422424 C-123.59003021 224.38622757 -123.60329346 223.2082309 -123.61695862 221.99453735 C-123.52018487 212.44662861 -121.07609935 205.40057383 -114.27403259 198.5771637 C-106.08060361 191.18309364 -94.1836751 192.11012698 -83.89122009 192.22169495 C-82.35851968 192.22730181 -80.82581383 192.23156675 -79.29310608 192.23455811 C-75.29161803 192.24592119 -71.29046534 192.27531288 -67.28910828 192.30867004 C-63.19298334 192.33955688 -59.09680333 192.3531029 -55.00059509 192.36817932 C-46.98742168 192.40019242 -38.97451905 192.45128301 -30.96153259 192.5146637 C-30.96429797 191.65290087 -30.96706335 190.79113804 -30.96991253 189.90326118 C-31.03623435 168.9115937 -31.08584334 147.91994434 -31.11696911 126.92819405 C-31.1324223 116.77664039 -31.1534822 106.62515677 -31.18785095 96.47364807 C-31.21780073 87.62313758 -31.23711885 78.77267783 -31.24379808 69.92211807 C-31.24770089 65.23803987 -31.25684071 60.5541068 -31.27872276 55.87007523 C-31.2991761 51.4558579 -31.30534859 47.04184467 -31.30085564 42.62758446 C-31.30167689 41.01276602 -31.30758965 39.39794034 -31.31914902 37.78316307 C-31.46454578 16.41301142 -31.46454578 16.41301142 -24.33653259 8.6396637 C-23.72551697 7.94099182 -23.11450134 7.24231995 -22.48497009 6.5224762 C-15.55160223 1.00583366 -8.65482449 -0.07230636 0 0 Z " fill="#D1D9E1" transform="translate(122.96153259277344,-0.5146636962890625)"/>
<path d="M0 0 C1.34989443 0.00550933 2.6997951 0.00963314 4.04969776 0.01248729 C6.93664233 0.02142772 9.82331224 0.03975239 12.71015394 0.06566656 C17.33265934 0.10710987 21.95512175 0.1276812 26.57777119 0.14529133 C32.19282413 0.16803285 37.80780904 0.19569977 43.42280325 0.2300339 C52.91895734 0.28786714 62.41470527 0.31245244 71.911026 0.3106842 C72.57691838 0.31059709 73.24281076 0.31050997 73.9288817 0.31042021 C76.60777646 0.30998125 79.28667103 0.30933737 81.96556565 0.30833724 C89.45632739 0.30568474 96.94707767 0.31160825 104.43783569 0.31869507 C105.46704588 0.31964024 105.46704588 0.31964024 106.51704819 0.32060451 C125.96315975 0.33888778 145.40924616 0.37765758 164.85531564 0.42133499 C168.7528425 0.4300855 172.65036977 0.43863878 176.54789734 0.44706726 C177.32269246 0.44874632 178.09748759 0.45042539 178.89576135 0.45215533 C191.61398288 0.47918611 204.33215914 0.4879507 217.05040642 0.4905208 C230.25802643 0.49358035 243.46551759 0.51546751 256.67307931 0.55500394 C264.75045884 0.57860773 272.82758033 0.58787628 280.90498952 0.57799248 C287.04922615 0.57204786 293.19312073 0.59237703 299.33728027 0.62253952 C301.84710174 0.6307723 304.35696786 0.63052341 306.86678505 0.62107658 C310.29549724 0.60944494 313.72273861 0.6285852 317.15133667 0.65524292 C318.63038798 0.63923303 318.63038798 0.63923303 320.13931912 0.62289971 C328.27945411 0.74073807 334.71244273 3.25315753 340.90995789 8.57572937 C341.51839539 9.30791687 342.12683289 10.04010437 342.75370789 10.79447937 C343.38277039 11.52666687 344.01183289 12.25885437 344.65995789 13.01322937 C347.55298159 17.15422408 348.50305027 20.74279905 348.52786255 25.76376343 C348.53783768 26.85002518 348.54781281 27.93628693 348.55809021 29.0554657 C348.55875488 30.23737488 348.55941956 31.41928406 348.56010437 32.63700867 C348.56842789 33.88964005 348.5767514 35.14227142 348.58532715 36.43286133 C348.60528125 39.86294781 348.61606585 43.29279166 348.62115359 46.72291541 C348.62480328 48.86966801 348.63104663 51.01639749 348.63815498 53.16314125 C348.66263901 60.66355534 348.67569827 68.16390042 348.679245 75.66435242 C348.68287536 82.63710688 348.71273712 89.60941986 348.75464958 96.58203954 C348.78944219 102.58226217 348.80479501 108.58233919 348.80549103 114.58266193 C348.80628107 118.16013785 348.81489161 121.73716415 348.84348869 125.31453514 C348.87472701 129.31166121 348.8655672 133.30774863 348.85307312 137.30497742 C348.87532455 139.06265945 348.87532455 139.06265945 348.89802551 140.85585022 C348.82304983 149.30559768 347.10063229 156.08263902 341.29315853 162.44100475 C332.99095131 170.46985932 324.29580474 170.73368961 313.26142883 170.68888855 C311.8385903 170.69378205 310.41575575 170.69997397 308.99292791 170.70734644 C305.09670575 170.72371091 301.20068639 170.72143521 297.30444193 170.71597147 C293.09710122 170.71329697 288.88981405 170.72784091 284.68249512 170.74006653 C276.44516692 170.76110463 268.20790912 170.76566232 259.97055723 170.76387864 C253.27412373 170.76257026 246.57771217 170.76637907 239.88128281 170.77380371 C237.95129979 170.77590294 236.02131677 170.77800054 234.09133375 170.78009653 C233.1306848 170.78114006 232.17003584 170.78218359 231.18027632 170.78325874 C213.01841014 170.80215441 194.85658438 170.80111291 176.69471245 170.79428941 C160.08617354 170.78871384 143.47778888 170.80954118 126.86928602 170.84264988 C109.80804395 170.87639666 92.74687575 170.89155402 75.68559968 170.88693285 C66.110036 170.88468924 56.53461489 170.88991557 46.95907974 170.91482544 C38.80732864 170.93585125 30.65579832 170.93941781 22.50403811 170.92052585 C18.34674876 170.91137607 14.1898709 170.91020149 10.03261375 170.9308815 C6.22274712 170.94962351 2.41362807 170.94505276 -1.39621039 170.92233568 C-3.41850863 170.91618723 -5.44083624 170.93451608 -7.4630512 170.9538722 C-16.07303476 170.87033499 -23.14960573 169.52517335 -29.65353334 163.53909445 C-36.73075862 156.04860921 -37.19070124 148.52683575 -37.16621399 138.63310242 C-37.17468353 137.37042542 -37.18315308 136.10774841 -37.19187927 134.80680847 C-37.2140134 131.35825502 -37.21702998 127.90994109 -37.21513176 124.46132636 C-37.21501166 121.57394495 -37.22359224 118.68661355 -37.23190928 115.79924613 C-37.25111509 108.9816236 -37.25403788 102.16412349 -37.24726868 95.34648132 C-37.24063346 88.33390344 -37.26347727 81.32185229 -37.30058241 74.30938119 C-37.3313642 68.27088653 -37.3426302 62.23256056 -37.33874559 56.1939891 C-37.33668639 52.59532748 -37.34202726 48.9970757 -37.36663818 45.398489 C-37.39321501 41.37998957 -37.37911335 37.36258889 -37.36152649 33.34403992 C-37.37478973 32.16604324 -37.38805298 30.98804657 -37.40171814 29.77435303 C-37.30494439 20.22644428 -34.86085887 13.1803895 -28.05879211 6.35697937 C-20.46605607 -0.49500194 -9.57830788 -0.11782058 0 0 Z " fill="#26DE81" transform="translate(36.74629211425781,191.7055206298828)"/>
<path d="M0 0 C1.61441375 0.30159804 3.22773888 0.60902759 4.84057617 0.91894531 C5.73910812 1.08952454 6.63764008 1.26010376 7.56340027 1.43585205 C14.11804806 2.95345507 19.31638501 8.63244673 23 14 C26.25065972 21.00629033 26.43965989 27.81789595 26.41992188 35.42944336 C26.42839142 36.64364456 26.43686096 37.85784576 26.44558716 39.10884094 C26.46487776 42.4148421 26.47074151 45.7202768 26.46883965 49.02629542 C26.46871928 51.79696754 26.47730992 54.56758788 26.48561716 57.33824545 C26.50479696 63.87974819 26.50775456 70.42112335 26.50097656 76.96264648 C26.49433601 83.68784798 26.51721258 90.412501 26.55429029 97.1375913 C26.58507651 102.93409132 26.59633784 108.73041567 26.59245348 114.52699572 C26.59039556 117.97919918 26.59571562 121.43097528 26.62034607 124.88310051 C26.64693275 128.73600288 26.63281741 132.58819674 26.61523438 136.44116211 C26.62849762 137.569263 26.64176086 138.69736389 26.65542603 139.85964966 C26.5624959 148.65557332 24.27475034 155.13747396 18.5625 161.875 C9.48532405 169.40241421 2.34818121 170.29935269 -9.0790863 170.24050903 C-10.90115501 170.24307231 -10.90115501 170.24307231 -12.76003319 170.24568737 C-16.11917119 170.24840624 -19.47807473 170.24217791 -22.83718431 170.23213124 C-26.46422522 170.22347748 -30.09125916 170.22641827 -33.7183075 170.22793579 C-39.99825688 170.22898342 -46.27816464 170.22271954 -52.55810356 170.21146011 C-61.63778454 170.19519159 -70.71744544 170.18999572 -79.79713941 170.18748413 C-94.52907765 170.18310915 -109.26099372 170.16980539 -123.99291992 170.15087891 C-138.30183807 170.13251501 -152.61075018 170.118361 -166.91967773 170.10986328 C-167.80198936 170.10933783 -168.68430099 170.10881239 -169.59334933 170.10827102 C-174.01973994 170.1056609 -178.4461306 170.1031335 -182.87252128 170.10064721 C-219.58169714 170.07992085 -256.29084539 170.04414944 -293 170 C-293 161.42 -293 152.84 -293 144 C-289.61234879 143.99635437 -286.22469757 143.99270874 -282.73439026 143.98895264 C-251.65820833 143.95366475 -220.5821182 143.89862312 -189.50601045 143.82207905 C-185.43182308 143.81206177 -181.35763531 143.80221761 -177.28344727 143.79248047 C-176.06681763 143.78956841 -176.06681763 143.78956841 -174.82560962 143.78659752 C-161.69817855 143.7555891 -148.57076497 143.7386001 -135.44330419 143.72680578 C-121.97007306 143.71438821 -108.49693355 143.68687316 -95.02376026 143.64538693 C-86.71223178 143.62026882 -78.40085526 143.60688149 -70.08928829 143.60857043 C-64.38723029 143.60860022 -58.68532691 143.59394532 -52.98332918 143.56783572 C-49.69509143 143.55320955 -46.40723381 143.54714866 -43.11896133 143.55419731 C-39.54845669 143.56083131 -35.97887433 143.5429288 -32.40846252 143.51898193 C-31.37634016 143.52674235 -30.3442178 143.53450277 -29.280819 143.54249835 C-20.38881072 143.43705839 -13.07053612 140.85528319 -6.49078751 134.73401546 C-0.66800795 127.96122607 -0.41596259 120.14110854 -0.45410156 111.59545898 C-0.44376389 110.384702 -0.43342621 109.17394501 -0.42277527 107.92649841 C-0.39847373 104.63359487 -0.39150639 101.34122213 -0.39249516 98.0482471 C-0.38934986 94.59686421 -0.36369834 91.14564717 -0.34051514 87.6943512 C-0.30007455 81.17103185 -0.2796427 74.64781216 -0.26654124 68.12438685 C-0.25063051 60.69254978 -0.21219796 53.26088134 -0.17194796 45.82914245 C-0.08971266 30.55281186 -0.03551857 15.27651501 0 0 Z " fill="#B9C5CE" transform="translate(385,218)"/>
<path d="M0 0 C3.85830917 1.2237726 6.63989266 2.14399636 9.55859375 4.984375 C10.18403076 5.5827417 10.80946777 6.1811084 11.45385742 6.79760742 C12.4357605 7.76404175 12.4357605 7.76404175 13.4375 8.75 C14.85906331 10.11620981 16.28094579 11.48208759 17.703125 12.84765625 C18.41919922 13.54133301 19.13527344 14.23500977 19.87304688 14.94970703 C23.10813774 18.06819797 26.39663336 21.1281063 29.6875 24.1875 C30.30681396 24.76532227 30.92612793 25.34314453 31.56420898 25.93847656 C36.05791909 30.1309489 40.57146554 34.30154221 45.09106445 38.46606445 C52.39952298 45.20506159 59.65364926 52.00244278 66.91601562 58.79101562 C73.42842092 64.87768656 79.94456154 70.95966044 86.5 77 C92.40910861 82.44479559 98.28693777 87.92250803 104.15625 93.41015625 C106.75549933 95.83997598 109.36007021 98.2639023 111.96875 100.68359375 C115.65901473 104.10847056 119.33623239 107.54679375 123 111 C123.50418457 111.47405273 124.00836914 111.94810547 124.52783203 112.43652344 C125.8399637 113.67749632 127.13929822 114.93196213 128.4375 116.1875 C129.13746094 116.86167969 129.83742188 117.53585938 130.55859375 118.23046875 C132 120 132 120 132 123 C117.66559962 123.0701979 103.33122605 123.12284117 88.99668884 123.15543652 C82.34033422 123.17108189 75.68412592 123.19229982 69.02783203 123.22631836 C62.60228338 123.25895153 56.17684584 123.27686152 49.7512207 123.28463173 C47.30165865 123.29016808 44.85210256 123.3009792 42.40258789 123.31719017 C38.96747775 123.3390165 35.53282475 123.34196467 32.09765625 123.34057617 C31.08848648 123.351362 30.07931671 123.36214783 29.03956604 123.3732605 C20.05022502 123.33402958 13.46729033 121.22157989 6.76171875 115.04296875 C3.91100214 111.73714883 2.46585882 108.06630892 1 104 C0.67 103.34 0.34 102.68 0 102 C-0.09156105 100.63153259 -0.12193944 99.25870253 -0.12025452 97.88717651 C-0.12162918 97.02618347 -0.12300385 96.16519043 -0.12442017 95.27810669 C-0.12082489 94.33152191 -0.11722961 93.38493713 -0.11352539 92.40966797 C-0.11367142 91.41451172 -0.11381744 90.41935547 -0.1139679 89.39404297 C-0.11326931 86.09340257 -0.10547944 82.79281808 -0.09765625 79.4921875 C-0.09579188 77.20818106 -0.09436807 74.92417422 -0.09336853 72.64016724 C-0.08954487 66.61988222 -0.07971586 60.59962121 -0.06866455 54.5793457 C-0.05844718 48.43961919 -0.05387021 42.29988881 -0.04882812 36.16015625 C-0.03809348 24.10676027 -0.02101885 12.05338213 0 0 Z " fill="#818F9B" transform="translate(377,2)"/>
<path d="M0 0 C0.83490967 -0.01853027 1.66981934 -0.03706055 2.5300293 -0.05615234 C12.07720642 0.03979919 19.87789475 4.15048237 26.875 10.5 C29.52339655 13.67807586 30.74001376 15.53581257 31.3125 19.625 C30.8091794 22.93253538 30.45059317 24.33982508 27.875 26.5 C24.4375 27 24.4375 27 20.875 26.5 C18.75 24.8125 18.75 24.8125 16.875 22.5 C12.55386474 17.7240084 9.1873251 15.81643801 2.7265625 15.19921875 C-4.43651345 15.17320274 -11.01324295 15.15037641 -16.83203125 19.890625 C-18.47762735 21.60269109 -18.47762735 21.60269109 -18.1875 24.9375 C-17.41102119 28.59719167 -17.41102119 28.59719167 -14.75 30.8125 C-8.81043792 33.57746855 -2.6165469 34.13808558 3.828125 35.07421875 C14.25916522 36.70636975 21.72152496 39.14421421 28.375 47.75 C32.24378846 53.29526346 32.76525226 57.75328431 31.875 64.5 C28.99968492 72.19311401 24.07889211 76.82528736 16.875 80.5 C16.23304688 80.83902344 15.59109375 81.17804688 14.9296875 81.52734375 C6.14420451 85.26548063 -6.85709196 85.17020158 -15.75 81.875 C-22.53411901 78.55312104 -28.6768244 74.39635121 -32.125 67.5 C-32.72131755 63.7730153 -32.63758177 62.24915798 -30.5 59.125 C-28.125 57.5 -28.125 57.5 -25.25 56.8125 C-21.16349071 57.71153204 -20.24005415 59.49847001 -17.7265625 62.67578125 C-14.08006062 66.82923583 -10.21612665 68.26303822 -4.78125 68.87890625 C2.64704792 69.12492894 7.55698256 68.38801073 13.875 64.5 C14.535 64.5 15.195 64.5 15.875 64.5 C16.81771002 61.24360341 16.81771002 61.24360341 16.875 57.5 C13.53742627 53.082623 10.06698469 51.03164974 4.63378906 50.12670898 C1.0263251 49.6508293 -2.58438011 49.21905421 -6.20117188 48.8203125 C-17.0073935 47.4569469 -24.85462312 42.97484215 -31.5625 34.375 C-34.10695023 29.38566498 -33.9486522 23.92598946 -33.125 18.5 C-30.54319118 11.65706423 -25.1536136 6.81232367 -18.93359375 3.2421875 C-12.74322466 0.47153717 -6.68370559 0.09225691 0 0 Z " fill="#EDF1F3" transform="translate(234.125,235.5)"/>
<path d="M0 0 C1.00005304 3.00015912 1.11575585 4.97423756 1.09765625 8.10546875 C1.09282227 9.57983398 1.09282227 9.57983398 1.08789062 11.08398438 C1.07532227 12.62022461 1.07532227 12.62022461 1.0625 14.1875 C1.05798828 15.22326172 1.05347656 16.25902344 1.04882812 17.32617188 C1.0370401 19.88417266 1.02058515 22.44205733 1 25 C-10.07482371 25.046417 -21.14962414 25.08191677 -32.22452545 25.10362434 C-37.36749212 25.11404484 -42.51039205 25.12817237 -47.65332031 25.15087891 C-52.61999667 25.17266911 -57.58660898 25.18458166 -62.55332947 25.18975449 C-64.44466662 25.19343916 -66.33600042 25.20063435 -68.22731018 25.21146011 C-70.88403803 25.22605716 -73.54050389 25.22797452 -76.19726562 25.22705078 C-77.36036758 25.23783661 -77.36036758 25.23783661 -78.54696655 25.24884033 C-87.49248865 25.21536131 -94.38504699 23.20417434 -101 17 C-105.89466097 11.37423777 -108.11340677 6.51577565 -108 -1 C-94.21399041 -1.17717832 -80.42788352 -1.34272326 -66.64157295 -1.49477577 C-60.24062482 -1.56571548 -53.83976619 -1.64042484 -47.43896484 -1.72363281 C-41.26640314 -1.803737 -35.09380148 -1.87409127 -28.92104721 -1.93757248 C-26.56139885 -1.96357492 -24.20178709 -1.99314139 -21.84222794 -2.02626419 C-18.54734962 -2.0719188 -15.25257098 -2.10510783 -11.95751953 -2.13525391 C-10.48153793 -2.16006584 -10.48153793 -2.16006584 -8.97573853 -2.18537903 C-7.63376404 -2.19387627 -7.63376404 -2.19387627 -6.26467896 -2.20254517 C-5.09492366 -2.21637206 -5.09492366 -2.21637206 -3.90153694 -2.23047829 C-2 -2 -2 -2 0 0 Z " fill="#B9C4CD" transform="translate(511,126)"/>
<path d="M0 0 C5.4121598 4.59213559 9.1425758 10.63068838 13.18359375 16.40625 C16.19274642 20.65446553 19.17574346 24.46113574 23 28 C23.52787109 27.26064209 23.52787109 27.26064209 24.06640625 26.50634766 C27.47976724 21.73276677 30.92054779 16.98023989 34.38037109 12.24023438 C35.73354844 10.36854982 37.05524926 8.48135544 38.36328125 6.578125 C42.81596755 0.40325743 42.81596755 0.40325743 46.15625 -0.734375 C49.36785127 -0.94382726 51.50352482 -0.37611756 54.0625 1.5625 C55.44075228 5.14595592 54.90435645 7.26527273 54 11 C52.26192623 13.92556851 50.15788742 16.49972631 48 19.125 C46.81658462 20.61396063 45.6356158 22.10486886 44.45703125 23.59765625 C43.87260254 24.33387207 43.28817383 25.07008789 42.68603516 25.82861328 C38.88979808 30.71765651 35.45487151 35.86679298 32 41 C35.71800874 47.14333233 39.66102393 53.01898259 44.0625 58.6875 C44.48885742 59.23825195 44.91521484 59.78900391 45.35449219 60.35644531 C47.19826669 62.7262002 49.06163144 65.07468998 50.97265625 67.390625 C53.44348998 70.4514214 54.87212722 72.33506156 55.625 76.25 C54.83262492 79.73645033 53.95021206 80.98143385 51 83 C48.0625 83.5625 48.0625 83.5625 45 83 C40.69310672 79.20150897 37.38759615 74.72490848 34 70.125 C33.49210937 69.44308594 32.98421875 68.76117188 32.4609375 68.05859375 C30.00764707 64.7560874 27.60077694 61.43091333 25.25 58.0546875 C23.34454014 54.98271484 23.34454014 54.98271484 21 54 C20.72309326 54.58104492 20.44618652 55.16208984 20.16088867 55.76074219 C19.04326478 57.91654584 17.81611481 59.83957522 16.42578125 61.828125 C15.92651123 62.54234619 15.42724121 63.25656738 14.9128418 63.99243164 C12.29925457 67.67936392 9.66315992 71.34871964 7 75 C6.30648437 75.95519531 5.61296875 76.91039062 4.8984375 77.89453125 C2.03746952 81.51973041 0.91645344 82.83198354 -3.75 83.6875 C-7 83 -7 83 -8.9375 81.9375 C-10.67448925 78.77004901 -10.39967371 76.58278934 -10 73 C-8.35343504 69.84672553 -6.23989723 67.11698763 -4.0625 64.3125 C-3.47581543 63.52665527 -2.88913086 62.74081055 -2.28466797 61.93115234 C0.39708467 58.35035732 3.13716028 54.81736269 5.90234375 51.30078125 C6.32459229 50.75703857 6.74684082 50.2132959 7.18188477 49.65307617 C8.30216115 48.21828798 9.44337268 46.79991586 10.5859375 45.3828125 C12.16380159 43.18578181 12.16380159 43.18578181 12 41.07421875 C10.53627828 38.03813971 8.61973909 35.38784309 6.625 32.6875 C6.18816895 32.08156006 5.75133789 31.47562012 5.30126953 30.85131836 C2.8889204 27.51800692 0.41948824 24.23793124 -2.109375 20.9921875 C-2.61291504 20.33516846 -3.11645508 19.67814941 -3.63525391 19.0012207 C-4.60750638 17.73595408 -5.59366657 16.48121959 -6.59521484 15.23901367 C-9.76105991 11.09708076 -10.62778391 8.37911685 -10 3 C-7.77517635 -1.05703136 -4.20307548 -0.57973455 0 0 Z " fill="#EDF1F3" transform="translate(48,236)"/>
<path d="M0 0 C5.43635957 4.89128075 9.63681948 11.39180105 13.875 17.3125 C14.45507812 18.10978516 15.03515625 18.90707031 15.6328125 19.72851562 C19.87251292 25.61753875 19.87251292 25.61753875 21 29 C21.66 29 22.32 29 23 29 C23.34998047 28.21689453 23.34998047 28.21689453 23.70703125 27.41796875 C25.43334609 24.18960354 27.54751717 21.2737132 29.6875 18.3125 C30.13158203 17.6947168 30.57566406 17.07693359 31.03320312 16.44042969 C40.06595186 3.93404814 40.06595186 3.93404814 44 0 C50.00458716 -0.54587156 50.00458716 -0.54587156 52.9375 1.0625 C54.6226539 4.13542769 54.30354989 6.54310239 54 10 C52.66640486 12.40460186 51.42521323 14.30712383 49.75 16.4375 C49.31196045 17.02515137 48.8739209 17.61280273 48.42260742 18.21826172 C46.42639513 20.88476821 44.38087232 23.5116135 42.33251953 26.13818359 C41.20289628 27.5876887 40.0773537 29.04038382 38.95605469 30.49633789 C37.8743352 31.89733495 36.78017134 33.28882557 35.67285156 34.66967773 C35.17881836 35.30719971 34.68478516 35.94472168 34.17578125 36.6015625 C33.73145752 37.16182129 33.28713379 37.72208008 32.8293457 38.29931641 C31.82270063 39.98497043 31.82270063 39.98497043 32.19995117 41.98413086 C33.08353541 44.21048271 34.13816035 45.77565594 35.625 47.65234375 C36.16302246 48.34030029 36.70104492 49.02825684 37.25537109 49.73706055 C37.83109863 50.46320557 38.40682617 51.18935059 39 51.9375 C40.18147002 53.46216205 41.361143 54.98821824 42.5390625 56.515625 C43.12333008 57.27166016 43.70759766 58.02769531 44.30957031 58.80664062 C46.70058845 61.90902464 49.07183958 65.01924318 51.375 68.1875 C52.10460937 69.17105469 52.83421875 70.15460938 53.5859375 71.16796875 C55.321211 74.64330932 55.06441956 76.32149124 54 80 C52.875 81.875 52.875 81.875 51 83 C47.6875 83.625 47.6875 83.625 44 83 C42.56469727 81.73291016 42.56469727 81.73291016 41.19140625 80.0390625 C40.67618408 79.40468262 40.16096191 78.77030273 39.63012695 78.11669922 C36.75579914 74.38442093 33.98497227 70.58524848 31.25 66.75 C30.67378906 65.94820313 30.09757812 65.14640625 29.50390625 64.3203125 C27.29290988 61.23831755 25.10421576 58.15632364 23 55 C22.34 55 21.68 55 21 55 C19.3947928 57.05126667 17.90675536 59.10408455 16.4375 61.25 C15.54155505 62.53208275 14.64439462 63.81331684 13.74609375 65.09375 C13.29089355 65.74472656 12.83569336 66.39570313 12.36669922 67.06640625 C10.29422755 69.99852051 8.15596024 72.87895508 6 75.75 C4.9171875 77.19632813 4.9171875 77.19632813 3.8125 78.671875 C0.49267349 82.93613492 0.49267349 82.93613492 -3.375 83.4375 C-7 83 -7 83 -9.5 80.875 C-11.39805547 77.23706034 -11.06529358 75.92047231 -10 72 C-8.1015625 69.09765625 -8.1015625 69.09765625 -5.625 66.0625 C-4.72110479 64.93092506 -3.81882644 63.79805713 -2.91796875 62.6640625 C-2.44407715 62.07270508 -1.97018555 61.48134766 -1.48193359 60.87207031 C1.10002866 57.61037565 3.5859598 54.27955946 6.0625 50.9375 C6.53929199 50.30658447 7.01608398 49.67566895 7.50732422 49.02563477 C10.59972148 44.87478386 10.59972148 44.87478386 12 40 C10.31061314 37.20692589 10.31061314 37.20692589 7.8125 34.3125 C6.89186176 33.16228785 5.97403034 32.0098251 5.05859375 30.85546875 C4.56601074 30.23849121 4.07342773 29.62151367 3.56591797 28.98583984 C0.75615018 25.42259519 -1.95083048 21.790702 -4.625 18.125 C-5.15762451 17.42415283 -5.69024902 16.72330566 -6.23901367 16.0012207 C-9.45596262 11.555147 -10.73390404 8.67884974 -10 3 C-7.76405264 -1.07731577 -4.2135797 -0.77248961 0 0 Z " fill="#EDF1F4" transform="translate(293,236)"/>
<path d="M0 0 C1.69355774 1.12739563 1.69355774 1.12739563 3 3 C3.36076355 5.86637878 3.36076355 5.86637878 3.34057617 9.39916992 C3.34101425 10.04334366 3.34145233 10.6875174 3.34190369 11.35121155 C3.33981559 13.47794021 3.31648513 15.60387802 3.29296875 17.73046875 C3.28737283 19.20591298 3.28310271 20.68136278 3.28010559 22.15681458 C3.26865637 26.03839534 3.23918887 29.91963883 3.20599365 33.80108643 C3.17529424 37.76252683 3.16160055 41.72402178 3.14648438 45.68554688 C3.11431894 53.45718494 3.06312205 61.22854519 3 69 C3.57993713 68.99111755 4.15987427 68.98223511 4.75738525 68.9730835 C10.79176988 68.88460971 16.82597038 68.82426578 22.86083984 68.78027344 C25.11319461 68.76015444 27.36549713 68.73285592 29.61767578 68.69824219 C32.85462331 68.64973791 36.09088047 68.62703395 39.328125 68.609375 C40.83925873 68.57840729 40.83925873 68.57840729 42.38092041 68.54681396 C49.33279291 68.54458117 49.33279291 68.54458117 52.63964844 70.80175781 C54.62224662 74.00551122 54.46893005 76.31554957 54 80 C52.82273865 81.68859863 52.82273865 81.68859863 51 83 C48.46424866 83.39440918 48.46424866 83.39440918 45.39868164 83.41992188 C43.67658226 83.44378967 43.67658226 83.44378967 41.91969299 83.46813965 C40.67904587 83.46834106 39.43839874 83.46854248 38.16015625 83.46875 C36.88651718 83.47636353 35.61287811 83.48397705 34.30064392 83.49182129 C31.60449107 83.50263732 28.90921386 83.50683519 26.21313477 83.50097656 C22.76148743 83.495081 19.31124704 83.52566187 15.85987186 83.56609344 C12.56415941 83.59819008 9.26850095 83.59385416 5.97265625 83.59375 C4.11472191 83.6183429 4.11472191 83.6183429 2.21925354 83.64343262 C1.06803513 83.6341272 -0.08318329 83.62482178 -1.26928711 83.61523438 C-2.28171982 83.61728882 -3.29415253 83.61934326 -4.33726501 83.62145996 C-7 83 -7 83 -9.32582092 80.9176178 C-11.41762179 77.27220405 -11.50724291 74.89699981 -11.51757812 70.70288086 C-11.5245874 69.98681168 -11.53159668 69.27074249 -11.53881836 68.53297424 C-11.5563602 66.17653112 -11.54479157 63.82129812 -11.53125 61.46484375 C-11.53394574 59.82247183 -11.53782885 58.18010146 -11.54284668 56.53773499 C-11.54873627 53.1004411 -11.54019541 49.66356374 -11.52148438 46.22631836 C-11.49867672 41.82209914 -11.51183214 37.418854 -11.53577423 33.01467037 C-11.55023171 29.62513392 -11.54562686 26.23582828 -11.53526306 22.84628487 C-11.53259655 21.22238614 -11.53586293 19.59846639 -11.54518127 17.97459221 C-11.5553486 15.70507186 -11.53984678 13.43712762 -11.51757812 11.16772461 C-11.51439575 9.87708603 -11.51121338 8.58644745 -11.50793457 7.25669861 C-11 4 -11 4 -9.19030762 1.57936096 C-6.02625392 -0.70213724 -3.79994532 -0.4836294 0 0 Z " fill="#EDF1F4" transform="translate(130,236)"/>
</svg>
